<svg data-v-423bf9ae="" xmlns="http://www.w3.org/2000/svg" viewBox="0 0 585 90" class="iconLeft"><!----><!----><!----><g data-v-423bf9ae="" id="1c1b76d1-36e5-4703-a555-177a96342d86" fill="#7D3A32" transform="matrix(4.658385051777184,0,0,4.658385051777184,129.9790548830759,1.9565204082229428)"><path d="M3.63 8.26L5.25 8.26C5.66 8.26 5.99 8.36 6.24 8.56C6.50 8.76 6.62 9.04 6.62 9.39C6.62 10.36 5.96 10.85 4.65 10.85L3.18 10.85ZM3.93 6.58L4.28 4.55L5.61 4.55C6.38 4.55 6.76 4.81 6.76 5.33C6.76 5.73 6.60 6.03 6.27 6.25C5.95 6.47 5.52 6.58 4.98 6.58ZM2.63 2.80L0.91 12.60L4.48 12.60C5.10 12.60 5.64 12.55 6.11 12.45C6.58 12.34 7.01 12.17 7.39 11.93C7.77 11.70 8.07 11.36 8.27 10.93C8.48 10.49 8.58 9.97 8.58 9.35C8.58 8.46 8.07 7.79 7.06 7.36C8.19 6.93 8.76 6.17 8.76 5.08C8.76 4.38 8.52 3.83 8.02 3.42C7.53 3.01 6.78 2.80 5.78 2.80ZM14.41 8.09L15.64 6.58C15.37 6.16 14.84 5.95 14.06 5.95C13.51 5.95 12.95 6.29 12.38 6.96L12.52 6.16L10.56 6.16L9.42 12.60L11.38 12.60L12.03 8.96C12.17 8.17 12.67 7.77 13.52 7.77C13.86 7.77 14.15 7.88 14.41 8.09ZM17.36 9.84C17.36 9.14 17.59 8.56 18.05 8.11C18.50 7.65 19.02 7.42 19.59 7.42C20.07 7.42 20.45 7.56 20.73 7.83C21.00 8.10 21.14 8.47 21.14 8.93C21.14 9.63 20.91 10.21 20.45 10.66C19.99 11.11 19.47 11.34 18.90 11.34C18.41 11.34 18.04 11.21 17.77 10.94C17.50 10.67 17.36 10.31 17.36 9.84ZM19.74 5.81C19.06 5.81 18.40 5.96 17.76 6.26C17.12 6.57 16.57 7.04 16.12 7.69C15.67 8.33 15.44 9.07 15.44 9.91C15.44 10.84 15.78 11.57 16.45 12.12C17.12 12.67 17.89 12.95 18.76 12.95C19.95 12.95 20.96 12.58 21.80 11.85C22.64 11.12 23.06 10.12 23.06 8.85C23.06 7.90 22.75 7.15 22.13 6.61C21.52 6.08 20.72 5.81 19.74 5.81ZM25.42 9.84C25.42 9.14 25.65 8.56 26.11 8.11C26.57 7.65 27.08 7.42 27.65 7.42C28.14 7.42 28.52 7.56 28.79 7.83C29.07 8.10 29.20 8.47 29.20 8.93C29.20 9.63 28.97 10.21 28.51 10.66C28.05 11.11 27.53 11.34 26.96 11.34C26.48 11.34 26.10 11.21 25.83 10.94C25.56 10.67 25.42 10.31 25.42 9.84ZM27.80 5.81C27.12 5.81 26.46 5.96 25.82 6.26C25.18 6.57 24.64 7.04 24.19 7.69C23.73 8.33 23.51 9.07 23.51 9.91C23.51 10.84 23.84 11.57 24.51 12.12C25.19 12.67 25.96 12.95 26.82 12.95C28.01 12.95 29.02 12.58 29.86 11.85C30.70 11.12 31.12 10.12 31.12 8.85C31.12 7.90 30.81 7.15 30.20 6.61C29.58 6.08 28.78 5.81 27.80 5.81ZM34.36 8.57C34.44 8.26 34.59 8.01 34.82 7.83C35.04 7.64 35.33 7.55 35.69 7.55C36.04 7.55 36.28 7.64 36.41 7.82C36.53 8.00 36.56 8.29 36.50 8.68L35.81 12.60L37.70 12.60L38.42 8.57C38.49 8.26 38.64 8.01 38.87 7.83C39.10 7.64 39.39 7.55 39.75 7.55C40.10 7.55 40.34 7.64 40.47 7.82C40.59 8.00 40.62 8.29 40.56 8.68L39.87 12.60L41.76 12.60L42.50 8.40C42.65 7.57 42.57 6.96 42.26 6.58C41.95 6.20 41.38 6.01 40.57 6.01C39.73 6.01 39.01 6.39 38.42 7.15C38.20 6.39 37.57 6.01 36.51 6.01C35.84 6.01 35.21 6.37 34.61 7.10L34.78 6.16L32.75 6.16L31.61 12.60L33.64 12.60ZM50.46 8.40L54.54 8.40L54.84 6.72L50.75 6.72L51.13 4.55L55.50 4.55L55.80 2.80L49.43 2.80L47.71 12.60L54.08 12.60L54.39 10.85L50.02 10.85ZM61.15 6.16L59.29 8.02L58.07 6.16L56.00 6.16L58.07 9.24L54.70 12.60L56.97 12.60L58.95 10.57L60.33 12.60L62.26 12.60L60.14 9.35L63.28 6.16ZM64.18 15.68L64.93 11.41C65.12 11.87 65.41 12.23 65.80 12.49C66.19 12.75 66.64 12.88 67.14 12.88C68.24 12.88 69.15 12.53 69.87 11.82C70.60 11.11 70.97 10.11 70.97 8.82C70.97 7.88 70.70 7.15 70.18 6.64C69.66 6.13 68.97 5.88 68.11 5.88C67.67 5.88 67.24 6.00 66.80 6.25C66.37 6.50 65.99 6.84 65.66 7.28L65.86 6.16L63.97 6.16L62.29 15.68ZM69.02 9.00C69.02 9.71 68.81 10.25 68.38 10.63C67.95 11.01 67.43 11.20 66.82 11.20C66.36 11.20 65.98 11.09 65.69 10.87C65.40 10.65 65.25 10.31 65.25 9.84C65.25 9.65 65.27 9.47 65.30 9.32C65.41 8.75 65.68 8.31 66.10 8.01C66.53 7.71 66.98 7.56 67.45 7.56C67.92 7.56 68.30 7.69 68.59 7.94C68.88 8.20 69.02 8.55 69.02 9.00ZM76.43 8.09L77.66 6.58C77.39 6.16 76.86 5.95 76.08 5.95C75.53 5.95 74.97 6.29 74.40 6.96L74.54 6.16L72.58 6.16L71.44 12.60L73.40 12.60L74.05 8.96C74.19 8.17 74.69 7.77 75.54 7.77C75.88 7.77 76.17 7.88 76.43 8.09ZM79.37 9.87L84.46 9.87C84.59 9.49 84.66 9.05 84.66 8.57C84.66 7.76 84.37 7.09 83.79 6.58C83.21 6.07 82.49 5.81 81.62 5.81C80.42 5.81 79.42 6.22 78.64 7.03C77.85 7.84 77.46 8.85 77.46 10.05C77.46 10.89 77.74 11.57 78.30 12.10C78.86 12.62 79.64 12.88 80.64 12.88C81.53 12.88 82.25 12.70 82.80 12.33C83.35 11.96 83.83 11.46 84.24 10.82L82.53 10.42C82.08 11.08 81.49 11.41 80.77 11.41C80.35 11.41 80.01 11.28 79.75 11.03C79.49 10.77 79.37 10.40 79.37 9.91ZM82.73 8.48L79.66 8.48C79.82 8.10 80.08 7.79 80.43 7.56C80.78 7.33 81.14 7.21 81.51 7.21C82.30 7.21 82.71 7.63 82.73 8.48ZM86.66 10.35L84.95 10.88C84.96 11.43 85.23 11.91 85.76 12.33C86.28 12.74 86.97 12.95 87.81 12.95C88.67 12.95 89.37 12.74 89.91 12.33C90.45 11.91 90.72 11.30 90.72 10.49C90.72 9.94 90.52 9.50 90.13 9.18C89.94 9.03 89.53 8.82 88.91 8.58C88.66 8.48 88.49 8.41 88.40 8.37C88.31 8.33 88.21 8.28 88.09 8.21C87.97 8.14 87.89 8.08 87.86 8.02C87.82 7.95 87.81 7.88 87.81 7.80C87.81 7.63 87.88 7.49 88.02 7.38C88.16 7.28 88.33 7.22 88.52 7.22C88.95 7.22 89.30 7.50 89.56 8.06L91.11 7.56C91.00 7.05 90.72 6.63 90.27 6.30C89.82 5.97 89.25 5.81 88.55 5.81C87.74 5.81 87.09 6.01 86.60 6.41C86.11 6.81 85.86 7.32 85.86 7.94C85.86 8.50 86.01 8.92 86.30 9.20C86.59 9.48 86.97 9.70 87.46 9.86C88.32 10.15 88.75 10.43 88.75 10.71C88.75 10.92 88.66 11.07 88.47 11.18C88.29 11.29 88.07 11.34 87.81 11.34C87.47 11.34 87.20 11.25 87.00 11.08C86.80 10.91 86.69 10.66 86.66 10.35ZM93.21 10.35L91.50 10.88C91.51 11.43 91.78 11.91 92.31 12.33C92.84 12.74 93.52 12.95 94.36 12.95C95.22 12.95 95.92 12.74 96.46 12.33C97.00 11.91 97.27 11.30 97.27 10.49C97.27 9.94 97.08 9.50 96.68 9.18C96.49 9.03 96.08 8.82 95.47 8.58C95.21 8.48 95.04 8.41 94.96 8.37C94.87 8.33 94.76 8.28 94.64 8.21C94.52 8.14 94.44 8.08 94.41 8.02C94.38 7.95 94.36 7.88 94.36 7.80C94.36 7.63 94.43 7.49 94.57 7.38C94.71 7.28 94.88 7.22 95.07 7.22C95.50 7.22 95.85 7.50 96.11 8.06L97.66 7.56C97.55 7.05 97.27 6.63 96.82 6.30C96.38 5.97 95.80 5.81 95.10 5.81C94.29 5.81 93.64 6.01 93.15 6.41C92.66 6.81 92.41 7.32 92.41 7.94C92.41 8.50 92.56 8.92 92.85 9.20C93.14 9.48 93.52 9.70 94.01 9.86C94.87 10.15 95.30 10.43 95.30 10.71C95.30 10.92 95.21 11.07 95.03 11.18C94.84 11.29 94.62 11.34 94.36 11.34C94.02 11.34 93.76 11.25 93.56 11.08C93.35 10.91 93.24 10.66 93.21 10.35Z"></path></g><!----><g data-v-423bf9ae="" id="49432653-3a24-4119-b36a-ca2a67fd41ea" transform="matrix(1.2720308975766728,0,0,1.2720308975766728,-6.525836025534048,-17.9781799955923)" stroke="none" fill="#7D3A32"><path d="M32.302 36.596L5.979 25.908l5.469-1.997 26.01 10.56zM44.692 31.671L18.37 20.983l5.468-1.997 26.011 10.56zM55.466 27.309L29.144 16.621l5.468-1.997 26.011 10.56zM31.531 47.455L7.105 37.538l-1.897-4.972 26.291 10.66zM31.531 56.002l-18.516-7.556-1.695-4.893 20.179 8.219zM31.531 64.634l-10.223-4.197-2.283-5.133 12.474 5.1zM35.526 72.919l29.345 12.457.001-33.399-29.346-12.471v33.413zm4.562-26.701l20.614 8.752v23.448l-20.614-8.751V46.218z"></path><path d="M83.089 44.584v-.427l-1.156.494 1.156-.501-.502-.204 11.911-5.051-29.234-11.586L36.06 38.882l29.204 12.411 12.243-5.192.534.217v.407l-12.386 5.253-.001 33.399L95 72.919V39.532l-11.911 5.052zm.75-5.333l-6.266 2.659-18.568-7.54 6.259-2.48 18.575 7.361zm-18.575 7.886l-18.576-7.885 7.06-2.798 18.748 7.613-7.232 3.07zM90.26 69.539L70.004 78.14V55.098l8.037-3.412v5.479l1.245-2.58.846.48.78-1.84.724 1.013.613-.613.84 1.382v-5.465l7.171-3.044v23.041z"></path><path d="M87.667 57.529c0 1.296-1.052 2.787-2.35 3.331-1.296.541-2.348-.07-2.348-1.367 0-1.299 1.052-2.79 2.348-3.331 1.298-.543 2.35.069 2.35 1.367zM80.641 60.467c0 1.296-1.052 2.786-2.351 3.329-1.296.543-2.348-.071-2.348-1.367 0-1.297 1.052-2.789 2.348-3.331 1.299-.541 2.351.071 2.351 1.369zM81.579 70.204c-3.589 1.5-6.657.217-7.294-3.05l1.738-1.039c.484 2.489 2.822 3.467 5.556 2.324 2.737-1.144 5.074-4.074 5.559-6.969l1.738-.414c-.637 3.8-3.705 7.648-7.297 9.148z"></path></g><!----></svg>